<?xml version="1.0" encoding="UTF-8" standalone="no"?>
<!DOCTYPE svg PUBLIC "-//W3C//DTD SVG 1.1//EN" "http://www.w3.org/Graphics/SVG/1.1/DTD/svg11.dtd">
<!-- Generated by graphviz version 3.0.0 (20220413.0242)
 -->
<!-- Title: name Pages: 1 -->
<svg width="336pt" height="458pt" viewBox="0.00 0.00 335.50 458.00" xmlns="http://www.w3.org/2000/svg" xmlns:xlink="http://www.w3.org/1999/xlink">
<g id="graph0" class="graph" transform="scale(1 1) rotate(0) translate(4 454)">
<title>name</title>
<!-- works -->
<g id="node1" class="node">
<title>works</title>
<polygon fill="Lavender" stroke="transparent" points="8.5,-99 8.5,-122 141.5,-122 141.5,-99 8.5,-99"/>
<polygon fill="none" stroke="black" points="8.5,-99 8.5,-122 141.5,-122 141.5,-99 8.5,-99"/>
<text text-anchor="start" x="56" y="-107.4" font-family="Helvetica,sans-Serif" font-weight="bold" font-size="12.00">works</text>
<polygon fill="White" stroke="transparent" points="8.5,-80 8.5,-99 82.5,-99 82.5,-80 8.5,-80"/>
<polygon fill="none" stroke="black" points="8.5,-80 8.5,-99 82.5,-99 82.5,-80 8.5,-80"/>
<text text-anchor="start" x="11.5" y="-86.4" font-family="Helvetica,sans-Serif" font-size="12.00">id</text>
<polygon fill="White" stroke="transparent" points="82.5,-80 82.5,-99 141.5,-99 141.5,-80 82.5,-80"/>
<polygon fill="none" stroke="black" points="82.5,-80 82.5,-99 141.5,-99 141.5,-80 82.5,-80"/>
<text text-anchor="start" x="85.5" y="-86.4" font-family="Helvetica,sans-Serif" font-size="12.00">int</text>
<polygon fill="White" stroke="transparent" points="8.5,-61 8.5,-80 82.5,-80 82.5,-61 8.5,-61"/>
<polygon fill="none" stroke="black" points="8.5,-61 8.5,-80 82.5,-80 82.5,-61 8.5,-61"/>
<text text-anchor="start" x="11.5" y="-67.4" font-family="Helvetica,sans-Serif" font-size="12.00">Title</text>
<polygon fill="White" stroke="transparent" points="82.5,-61 82.5,-80 141.5,-80 141.5,-61 82.5,-61"/>
<polygon fill="none" stroke="black" points="82.5,-61 82.5,-80 141.5,-80 141.5,-61 82.5,-61"/>
<text text-anchor="start" x="85.5" y="-67.4" font-family="Helvetica,sans-Serif" font-size="12.00">varchar</text>
<polygon fill="White" stroke="transparent" points="8.5,-42 8.5,-61 82.5,-61 82.5,-42 8.5,-42"/>
<polygon fill="none" stroke="black" points="8.5,-42 8.5,-61 82.5,-61 82.5,-42 8.5,-42"/>
<text text-anchor="start" x="11.5" y="-48.4" font-family="Helvetica,sans-Serif" font-size="12.00">LongTitle</text>
<polygon fill="White" stroke="transparent" points="82.5,-42 82.5,-61 141.5,-61 141.5,-42 82.5,-42"/>
<polygon fill="none" stroke="black" points="82.5,-42 82.5,-61 141.5,-61 141.5,-42 82.5,-42"/>
<text text-anchor="start" x="85.5" y="-48.4" font-family="Helvetica,sans-Serif" font-size="12.00">text</text>
<polygon fill="White" stroke="transparent" points="8.5,-23 8.5,-42 82.5,-42 82.5,-23 8.5,-23"/>
<polygon fill="none" stroke="black" points="8.5,-23 8.5,-42 82.5,-42 82.5,-23 8.5,-23"/>
<text text-anchor="start" x="11.5" y="-29.4" font-family="Helvetica,sans-Serif" font-size="12.00">Date</text>
<polygon fill="White" stroke="transparent" points="82.5,-23 82.5,-42 141.5,-42 141.5,-23 82.5,-23"/>
<polygon fill="none" stroke="black" points="82.5,-23 82.5,-42 141.5,-42 141.5,-23 82.5,-23"/>
<text text-anchor="start" x="85.5" y="-29.4" font-family="Helvetica,sans-Serif" font-size="12.00">int</text>
<polygon fill="White" stroke="transparent" points="8.5,-4 8.5,-23 82.5,-23 82.5,-4 8.5,-4"/>
<polygon fill="none" stroke="black" points="8.5,-4 8.5,-23 82.5,-23 82.5,-4 8.5,-4"/>
<text text-anchor="start" x="11.5" y="-10.4" font-family="Helvetica,sans-Serif" font-size="12.00">GenreType</text>
<polygon fill="White" stroke="transparent" points="82.5,-4 82.5,-23 141.5,-23 141.5,-4 82.5,-4"/>
<polygon fill="none" stroke="black" points="82.5,-4 82.5,-23 141.5,-23 141.5,-4 82.5,-4"/>
<text text-anchor="start" x="85.5" y="-10.4" font-family="Helvetica,sans-Serif" font-size="12.00">varchar</text>
</g>
<!-- chapters -->
<g id="node2" class="node">
<title>chapters</title>
<polygon fill="Lavender" stroke="transparent" points="11.5,-261 11.5,-284 137.5,-284 137.5,-261 11.5,-261"/>
<polygon fill="none" stroke="black" points="11.5,-261 11.5,-284 137.5,-284 137.5,-261 11.5,-261"/>
<text text-anchor="start" x="44" y="-269.4" font-family="Helvetica,sans-Serif" font-weight="bold" font-size="12.00">chapters</text>
<polygon fill="White" stroke="transparent" points="11.5,-242 11.5,-261 100.5,-261 100.5,-242 11.5,-242"/>
<polygon fill="none" stroke="black" points="11.5,-242 11.5,-261 100.5,-261 100.5,-242 11.5,-242"/>
<text text-anchor="start" x="14.5" y="-248.4" font-family="Helvetica,sans-Serif" font-size="12.00">id</text>
<polygon fill="White" stroke="transparent" points="100.5,-242 100.5,-261 137.5,-261 137.5,-242 100.5,-242"/>
<polygon fill="none" stroke="black" points="100.5,-242 100.5,-261 137.5,-261 137.5,-242 100.5,-242"/>
<text text-anchor="start" x="103.5" y="-248.4" font-family="Helvetica,sans-Serif" font-size="12.00">int</text>
<polygon fill="White" stroke="transparent" points="11.5,-223 11.5,-242 100.5,-242 100.5,-223 11.5,-223"/>
<polygon fill="none" stroke="black" points="11.5,-223 11.5,-242 100.5,-242 100.5,-223 11.5,-223"/>
<text text-anchor="start" x="14.5" y="-229.4" font-family="Helvetica,sans-Serif" font-size="12.00">Act</text>
<polygon fill="White" stroke="transparent" points="100.5,-223 100.5,-242 137.5,-242 137.5,-223 100.5,-223"/>
<polygon fill="none" stroke="black" points="100.5,-223 100.5,-242 137.5,-242 137.5,-223 100.5,-223"/>
<text text-anchor="start" x="103.5" y="-229.4" font-family="Helvetica,sans-Serif" font-size="12.00">int</text>
<polygon fill="White" stroke="transparent" points="11.5,-204 11.5,-223 100.5,-223 100.5,-204 11.5,-204"/>
<polygon fill="none" stroke="black" points="11.5,-204 11.5,-223 100.5,-223 100.5,-204 11.5,-204"/>
<text text-anchor="start" x="14.5" y="-210.4" font-family="Helvetica,sans-Serif" font-size="12.00">Scene</text>
<polygon fill="White" stroke="transparent" points="100.5,-204 100.5,-223 137.5,-223 137.5,-204 100.5,-204"/>
<polygon fill="none" stroke="black" points="100.5,-204 100.5,-223 137.5,-223 137.5,-204 100.5,-204"/>
<text text-anchor="start" x="103.5" y="-210.4" font-family="Helvetica,sans-Serif" font-size="12.00">int</text>
<polygon fill="White" stroke="transparent" points="11.5,-185 11.5,-204 100.5,-204 100.5,-185 11.5,-185"/>
<polygon fill="none" stroke="black" points="11.5,-185 11.5,-204 100.5,-204 100.5,-185 11.5,-185"/>
<text text-anchor="start" x="14.5" y="-191.4" font-family="Helvetica,sans-Serif" font-size="12.00">Description</text>
<polygon fill="White" stroke="transparent" points="100.5,-185 100.5,-204 137.5,-204 137.5,-185 100.5,-185"/>
<polygon fill="none" stroke="black" points="100.5,-185 100.5,-204 137.5,-204 137.5,-185 100.5,-185"/>
<text text-anchor="start" x="103.5" y="-191.4" font-family="Helvetica,sans-Serif" font-size="12.00">text</text>
<polygon fill="White" stroke="transparent" points="11.5,-166 11.5,-185 100.5,-185 100.5,-166 11.5,-166"/>
<polygon fill="none" stroke="black" points="11.5,-166 11.5,-185 100.5,-185 100.5,-166 11.5,-166"/>
<text text-anchor="start" x="14.5" y="-172.4" font-family="Helvetica,sans-Serif" font-size="12.00">work_id</text>
<polygon fill="White" stroke="transparent" points="100.5,-166 100.5,-185 137.5,-185 137.5,-166 100.5,-166"/>
<polygon fill="none" stroke="black" points="100.5,-166 100.5,-185 137.5,-185 137.5,-166 100.5,-166"/>
<text text-anchor="start" x="103.5" y="-172.4" font-family="Helvetica,sans-Serif" font-size="12.00">int</text>
</g>
<!-- chapters&#45;&gt;works -->
<g id="edge1" class="edge">
<title>chapters-&gt;works</title>
<path fill="none" stroke="black" d="M74.5,-161.9C74.5,-161.9 74.5,-136.19 74.5,-136.19"/>
<polygon fill="black" stroke="black" points="78,-136.19 74.5,-126.19 71,-136.19 78,-136.19"/>
</g>
<!-- characters -->
<g id="node3" class="node">
<title>characters</title>
<polygon fill="Lavender" stroke="transparent" points="171.5,-251 171.5,-274 319.5,-274 319.5,-251 171.5,-251"/>
<polygon fill="none" stroke="black" points="171.5,-251 171.5,-274 319.5,-274 319.5,-251 171.5,-251"/>
<text text-anchor="start" x="207.5" y="-259.4" font-family="Helvetica,sans-Serif" font-weight="bold" font-size="12.00">characters</text>
<polygon fill="White" stroke="transparent" points="171.5,-232 171.5,-251 260.5,-251 260.5,-232 171.5,-232"/>
<polygon fill="none" stroke="black" points="171.5,-232 171.5,-251 260.5,-251 260.5,-232 171.5,-232"/>
<text text-anchor="start" x="174.5" y="-238.4" font-family="Helvetica,sans-Serif" font-size="12.00">id</text>
<polygon fill="White" stroke="transparent" points="260.5,-232 260.5,-251 319.5,-251 319.5,-232 260.5,-232"/>
<polygon fill="none" stroke="black" points="260.5,-232 260.5,-251 319.5,-251 319.5,-232 260.5,-232"/>
<text text-anchor="start" x="263.5" y="-238.4" font-family="Helvetica,sans-Serif" font-size="12.00">int</text>
<polygon fill="White" stroke="transparent" points="171.5,-213 171.5,-232 260.5,-232 260.5,-213 171.5,-213"/>
<polygon fill="none" stroke="black" points="171.5,-213 171.5,-232 260.5,-232 260.5,-213 171.5,-213"/>
<text text-anchor="start" x="174.5" y="-219.4" font-family="Helvetica,sans-Serif" font-size="12.00">CharName</text>
<polygon fill="White" stroke="transparent" points="260.5,-213 260.5,-232 319.5,-232 319.5,-213 260.5,-213"/>
<polygon fill="none" stroke="black" points="260.5,-213 260.5,-232 319.5,-232 319.5,-213 260.5,-213"/>
<text text-anchor="start" x="263.5" y="-219.4" font-family="Helvetica,sans-Serif" font-size="12.00">varchar</text>
<polygon fill="White" stroke="transparent" points="171.5,-194 171.5,-213 260.5,-213 260.5,-194 171.5,-194"/>
<polygon fill="none" stroke="black" points="171.5,-194 171.5,-213 260.5,-213 260.5,-194 171.5,-194"/>
<text text-anchor="start" x="174.5" y="-200.4" font-family="Helvetica,sans-Serif" font-size="12.00">Abbrev</text>
<polygon fill="White" stroke="transparent" points="260.5,-194 260.5,-213 319.5,-213 319.5,-194 260.5,-194"/>
<polygon fill="none" stroke="black" points="260.5,-194 260.5,-213 319.5,-213 319.5,-194 260.5,-194"/>
<text text-anchor="start" x="263.5" y="-200.4" font-family="Helvetica,sans-Serif" font-size="12.00">varchar</text>
<polygon fill="White" stroke="transparent" points="171.5,-175 171.5,-194 260.5,-194 260.5,-175 171.5,-175"/>
<polygon fill="none" stroke="black" points="171.5,-175 171.5,-194 260.5,-194 260.5,-175 171.5,-175"/>
<text text-anchor="start" x="174.5" y="-181.4" font-family="Helvetica,sans-Serif" font-size="12.00">Description</text>
<polygon fill="White" stroke="transparent" points="260.5,-175 260.5,-194 319.5,-194 319.5,-175 260.5,-175"/>
<polygon fill="none" stroke="black" points="260.5,-175 260.5,-194 319.5,-194 319.5,-175 260.5,-175"/>
<text text-anchor="start" x="263.5" y="-181.4" font-family="Helvetica,sans-Serif" font-size="12.00">text</text>
</g>
<!-- paragraphs -->
<g id="node4" class="node">
<title>paragraphs</title>
<polygon fill="Lavender" stroke="transparent" points="92.5,-423 92.5,-446 226.5,-446 226.5,-423 92.5,-423"/>
<polygon fill="none" stroke="black" points="92.5,-423 92.5,-446 226.5,-446 226.5,-423 92.5,-423"/>
<text text-anchor="start" x="121.5" y="-431.4" font-family="Helvetica,sans-Serif" font-weight="bold" font-size="12.00">paragraphs</text>
<polygon fill="White" stroke="transparent" points="92.5,-404 92.5,-423 189.5,-423 189.5,-404 92.5,-404"/>
<polygon fill="none" stroke="black" points="92.5,-404 92.5,-423 189.5,-423 189.5,-404 92.5,-404"/>
<text text-anchor="start" x="95.5" y="-410.4" font-family="Helvetica,sans-Serif" font-size="12.00">id</text>
<polygon fill="White" stroke="transparent" points="189.5,-404 189.5,-423 226.5,-423 226.5,-404 189.5,-404"/>
<polygon fill="none" stroke="black" points="189.5,-404 189.5,-423 226.5,-423 226.5,-404 189.5,-404"/>
<text text-anchor="start" x="192.5" y="-410.4" font-family="Helvetica,sans-Serif" font-size="12.00">int</text>
<polygon fill="White" stroke="transparent" points="92.5,-385 92.5,-404 189.5,-404 189.5,-385 92.5,-385"/>
<polygon fill="none" stroke="black" points="92.5,-385 92.5,-404 189.5,-404 189.5,-385 92.5,-385"/>
<text text-anchor="start" x="95.5" y="-391.4" font-family="Helvetica,sans-Serif" font-size="12.00">ParagraphNum</text>
<polygon fill="White" stroke="transparent" points="189.5,-385 189.5,-404 226.5,-404 226.5,-385 189.5,-385"/>
<polygon fill="none" stroke="black" points="189.5,-385 189.5,-404 226.5,-404 226.5,-385 189.5,-385"/>
<text text-anchor="start" x="192.5" y="-391.4" font-family="Helvetica,sans-Serif" font-size="12.00">int</text>
<polygon fill="White" stroke="transparent" points="92.5,-366 92.5,-385 189.5,-385 189.5,-366 92.5,-366"/>
<polygon fill="none" stroke="black" points="92.5,-366 92.5,-385 189.5,-385 189.5,-366 92.5,-366"/>
<text text-anchor="start" x="95.5" y="-372.4" font-family="Helvetica,sans-Serif" font-size="12.00">PlainText</text>
<polygon fill="White" stroke="transparent" points="189.5,-366 189.5,-385 226.5,-385 226.5,-366 189.5,-366"/>
<polygon fill="none" stroke="black" points="189.5,-366 189.5,-385 226.5,-385 226.5,-366 189.5,-366"/>
<text text-anchor="start" x="192.5" y="-372.4" font-family="Helvetica,sans-Serif" font-size="12.00">text</text>
<polygon fill="White" stroke="transparent" points="92.5,-347 92.5,-366 189.5,-366 189.5,-347 92.5,-347"/>
<polygon fill="none" stroke="black" points="92.5,-347 92.5,-366 189.5,-366 189.5,-347 92.5,-347"/>
<text text-anchor="start" x="95.5" y="-353.4" font-family="Helvetica,sans-Serif" font-size="12.00">character_id</text>
<polygon fill="White" stroke="transparent" points="189.5,-347 189.5,-366 226.5,-366 226.5,-347 189.5,-347"/>
<polygon fill="none" stroke="black" points="189.5,-347 189.5,-366 226.5,-366 226.5,-347 189.5,-347"/>
<text text-anchor="start" x="192.5" y="-353.4" font-family="Helvetica,sans-Serif" font-size="12.00">int</text>
<polygon fill="White" stroke="transparent" points="92.5,-328 92.5,-347 189.5,-347 189.5,-328 92.5,-328"/>
<polygon fill="none" stroke="black" points="92.5,-328 92.5,-347 189.5,-347 189.5,-328 92.5,-328"/>
<text text-anchor="start" x="95.5" y="-334.4" font-family="Helvetica,sans-Serif" font-size="12.00">chapter_id</text>
<polygon fill="White" stroke="transparent" points="189.5,-328 189.5,-347 226.5,-347 226.5,-328 189.5,-328"/>
<polygon fill="none" stroke="black" points="189.5,-328 189.5,-347 226.5,-347 226.5,-328 189.5,-328"/>
<text text-anchor="start" x="192.5" y="-334.4" font-family="Helvetica,sans-Serif" font-size="12.00">int</text>
</g>
<!-- paragraphs&#45;&gt;chapters -->
<g id="edge3" class="edge">
<title>paragraphs-&gt;chapters</title>
<path fill="none" stroke="black" d="M115,-323.9C115,-323.9 115,-298.19 115,-298.19"/>
<polygon fill="black" stroke="black" points="118.5,-298.19 115,-288.19 111.5,-298.19 118.5,-298.19"/>
</g>
<!-- paragraphs&#45;&gt;characters -->
<g id="edge2" class="edge">
<title>paragraphs-&gt;characters</title>
<path fill="none" stroke="black" d="M199,-323.9C199,-323.9 199,-288.73 199,-288.73"/>
<polygon fill="black" stroke="black" points="202.5,-288.73 199,-278.73 195.5,-288.73 202.5,-288.73"/>
</g>
</g>
</svg>